# xmcd CD database file
#
# Track frame offsets:
#	150
#	13997
#	28342
#	46297
#	61235
#	72522
#	84627
#	101105
#	126537
#	139335
#	153832
#	161987
#	181857
#	200947
#	214047
#	222947
#	236792
#	243357
#	262795
#	282052
#	294200
#
# Disc length: 4035 seconds
#
# Revision: 0
# Processed by: cddbd v1.4PL0 Copyright (c) Steve Scherf et al.
# Submitted via: CDex 1.50
#
DISCID=470fc115
DTITLE=Ivar G. Jonsson - Northern Lights
DYEAR=2003
DGENRE=Jazz
TTITLE0=Tónlist aldanna
TTITLE1=March Waltz
TTITLE2=The Waltz
TTITLE3=A Few Laughs
TTITLE4=Evening Dance
TTITLE5=Helge Lundgren's Blues
TTITLE6=Northern Lights
TTITLE7=Icelandic Mood
TTITLE8=To Cecilie
TTITLE9=A Summer Blues
TTITLE10=The Tivoli Waltz
TTITLE11=September Waltz
TTITLE12=Spring Was Here
TTITLE13=In the Small Hours
TTITLE14=Pièce de salon
TTITLE15=Sol på Sankt Thomas Plads
TTITLE16=Casper's Falling-Asleep-Song
TTITLE17=Just Before Midnight
TTITLE18=Uptown Bounce
TTITLE19=The Coastal Engineering Conference Blues Waltz
TTITLE20=The Merry-Go-Round Waltz
EXTD=YEAR: 2003
EXTT0=
EXTT1=
EXTT2=
EXTT3=
EXTT4=
EXTT5=
EXTT6=
EXTT7=
EXTT8=
EXTT9=
EXTT10=
EXTT11=
EXTT12=
EXTT13=
EXTT14=
EXTT15=
EXTT16=
EXTT17=
EXTT18=
EXTT19=
EXTT20=
PLAYORDER=
